<svg clip-rule="evenodd" fill-rule="evenodd" stroke-linejoin="round" stroke-miterlimit="2" viewBox="0 0 856 300" xmlns="http://www.w3.org/2000/svg"><path d="m200.833 273.116c-30.31-3.167-50.915-13.435-69.095-22.493-20.227-10.078-37.695-18.764-64.998-18.034-46.787 2.12-59.472 37.541-62.755 52.486-.596 4.974-.474 8.195-.474 8.195s15.021-16.254 42.679-22.118c42.971-9.105 69.208 16.258 130.057 26.69 18.023 3.085 36.034 3.153 52.929-1.725 21.372-6.184 40.091-24.907 42.351-36.222-9.664 7.275-23.168 11.997-34.547 13.289-10.858 1.231-23.69 1.231-36.147-.068zm192.358-88.568c8.625 8.505 13.173 19.933 13.173 33.105 0 13.177-4.548 24.488-13.173 33.113-8.628 8.625-20.056 13.169-33.344 13.169-13.173 0-24.716-4.544-33.345-13.169-8.625-8.625-13.172-19.936-13.172-33.113 0-13.172 4.547-24.6 13.056-33.105 8.745-8.745 20.172-13.176 33.461-13.176 13.408 0 24.6 4.431 33.344 13.176zm-253.746-165.014c-16.21 0-31.82 2.755-46.373 7.783l-10.555-19.081s-14.819-6.896-32.434-7.943c-7.353-.44-.419 10.749-2.042 11.837-1.619 1.087-9.089-2.486-20.349-.566-20.062 3.422-26.185 15.668-26.185 15.668s8.785-3.662 19.432-3.607c19.404.102 32.87 5.792 41.444 8.918 7.964 2.905 5.131-2.652 4.422-6.965-.648-3.961 25.847 7.766 30.214 9.723 2.792 4.793 5.523 10.725 8.588 16.742 23.284-.753 54.013 9.839 60.978 38.547 12.549 51.723-27.085 57.361-27.085 57.361s9.886-6.017 3.106-11.499c-3.045-2.454-12.14-3.992-17.257-4.728 2.417 21.518 1.803 41.55.078 56.557-4.005 2.795-9.317 6.007-13.091 7.939 2.359-15.719 3.205-39.818.12-65.485-8.063-.211-15.229 1.026-25.163 3.276-16.698 3.781-25.438 10.702-25.438 10.702s6.047-14.649 1.343-36.168c-3.853-17.607-22.374-24.695-22.374-24.695s17.001-25.742 51.641-31.435c-3.317-9.617-6.856-16.865-9.252-21.297-48.716 21.038-83.213 68.598-83.213 124.851 0 34.173 9.774 58.644 25.909 79.023 7.844-5.362 17.397-9.654 29.871-11.509.153-.02.259-.034.259-.034.231-.034.48-.055.716-.089-.314-.324-.771-.787-.921-.944-3.845-4.101-7.346-8.277-10.425-12.43-9.085-12.266-13.476-21.855-13.571-22.036-1.528-2.206-2.032-4.987-1.391-7.623.617-2.539 2.25-4.677 4.479-5.863 3.644-1.937 8.151-.917 10.718 2.427l8.895 11.591c19.803 21.781 41.338 20.311 52.414 17.499 13.569-3.44 29.84-15.031 36.229-19.872 6.903-5.782 12.948-11.516 17.959-17.042 12.314-13.568 20.956-23.717 28.691-35.414 2.506-3.78 7.561-5.069 11.277-2.87 3.58 2.12 5.008 6.597 3.368 10.33-9.296 14.103-20.011 27.184-33.722 41.168-7.449 7.602-15.031 14.372-24.577 21.961-1.81 1.439-2.362 3.951-1.278 5.843.818 1.425 2.277 2.278 3.907 2.278 1.002 0 1.994-.345 2.785-.972 9.917-7.872 17.802-14.915 25.565-22.834 20.812-21.232 31.759-37.309 39.723-50.24 1.5-2.437 3.94-3.955 6.531-4.06 1.623-.085 3.208.341 4.599 1.183 3.471 2.103 4.882 6.361 3.399 10.05-7.841 13.551-16.398 26.918-41.809 53.342-6.968 7.241-14.782 14.018-20.812 19.115-1.93 1.636-2.281 4.486-.781 6.364.856 1.074 2.134 1.688 3.504 1.688 1.054 0 2.08-.375 2.891-1.06 6.259-5.288 14.38-12.328 21.658-19.896 15.205-15.808 25.995-28.623 33.962-40.333 1.663-2.447 4.367-3.866 7.043-3.733 1.762.096 3.423.747 4.796 1.879 3.317 2.73 3.836 7.909 1.156 11.55-7.333 9.954-14.956 19.414-22.65 28.094l-.273.3c-6.924 7.456-21.368 22.364-31.602 30.944-1.929 1.616-2.291 4.463-.801 6.345.852 1.087 2.137 1.708 3.522 1.708 1.043 0 2.065-.369 2.87-1.044 10.595-8.85 25.466-24.187 32.581-31.854 3.709-3.999 6.999-7.65 10.06-11.172 2.669-3.064 7.22-3.763 10.367-1.585.259.174.511.372.757.583 3.208 2.799 3.62 7.817.937 11.434-2.209 2.976-11.26 13.261-13.609 15.808-15.3 16.565-26.829 27.709-38.257 36.955-.32.255-1.588 1.244-1.588 1.244s.269.054.784.126c.198.031.405.051.603.075l.171.021c1.592.218 3.197.419 4.844.593 5.969.624 12.037.934 18.041.934 2.604 0 5.141-.065 7.616-.184 30.535-25.303 49.997-63.501 49.997-106.255 0-76.183-61.759-137.942-137.942-137.942zm294.099 217.476c0 6.645 2.796 10.023 7.926 10.023 5.128 0 8.046-3.378 8.046-10.023v-37.425h20.4v39.522c0 15.388-10.261 24.6-28.446 24.6-18.187 0-28.329-9.212-28.329-24.6v-39.522h20.403zm310.037 26.697c-20.168 0-33.692-13.292-33.692-32.758 0-19.469 13.524-32.877 33.692-32.877 9.211 0 17.485 2.563 24.716 9.208l-12.123 13.408c-3.15-3.618-7.227-5.482-11.311-5.482-8.043 0-14.339 6.412-14.339 15.743 0 9.324 6.296 15.62 14.339 15.62 5.014 0 9.443-2.563 12.242-7.111l12.473 13.52c-7.227 7.347-15.504 10.729-25.997 10.729zm-144 0c-20.983 0-34.626-13.176-34.626-32.41 0-19.702 13.523-33.225 33.923-33.225 21.454 0 34.395 13.169 34.395 35.904v1.521h-47.097c.699 7.806 5.83 12.47 13.64 12.47 5.594 0 10.023-2.332 12.239-6.648l19.704 3.849c-5.247 11.659-16.906 18.539-32.178 18.539zm84.184-10.03c-2.332 6.065-8.277 9.559-16.674 9.559-8.161 0-15.736-3.262-21.45-9.323-5.478-5.827-8.393-13.872-8.393-23.083 0-9.56 2.447-16.906 7.81-22.852 5.714-6.177 13.292-9.559 21.45-9.559 7.93 0 14.226 2.915 17.84 9.328v-8.162h19.585v62.608h-20.168zm167.366-4.479c1.486 1.507 2.26 3.501 2.26 5.652 0 2.236-.842 4.255-2.393 5.741-1.596 1.527-3.61 2.345-5.697 2.345-2.168 0-4.186-.862-5.737-2.458-1.511-1.551-2.329-3.525-2.329-5.628 0-2.151.866-4.234 2.462-5.806 1.506-1.483 3.436-2.284 5.604-2.284 2.24 0 4.279.842 5.83 2.438zm-75.832-76.078h20.403v36.024c4.313-6.995 10.493-10.609 18.188-10.609 11.424 0 18.535 7.463 18.535 20.987v42.671h-20.4v-36.726c0-6.644-2.332-9.91-7.814-9.91-5.71 0-8.509 3.849-8.509 11.659v34.977h-20.403zm-254.421 26.465h19.821v11.424c3.498-8.509 8.86-12.59 16.906-12.59.814 0 1.513 0 2.328.116v21.57c-2.328-.467-4.425-.815-6.061-.815-9.675 0-12.59 5.594-12.59 18.303v24.6h-20.404zm-16.789 62.608c-14.223 0-19.821-2.219-19.821-13.527v-32.761h-6.879v-16.32h6.879v-15.971h20.4v15.971h7.81v16.32h-7.81v24.838c0 2.912 1.166 4.193 3.849 4.193h3.961v17.257zm336.627-12.105c-1.309 1.305-1.994 2.989-1.994 4.762 0 1.728.641 3.324 1.881 4.589 1.265 1.305 2.925 2.014 4.698 2.014 1.729 0 3.392-.664 4.674-1.905 1.268-1.217 1.953-2.881 1.953-4.698 0-1.773-.644-3.392-1.861-4.63-1.285-1.309-2.928-1.994-4.742-1.994-1.797 0-3.368.641-4.609 1.862zm4.742.153c2.547 0 3.832.907 3.832 2.57 0 1.153-.685 2.039-1.882 2.394l1.974 3.9h-2.683l-1.664-3.525h-.709v3.525h-2.437v-8.864zm-1.132 3.9h.866c1.064 0 1.596-.375 1.596-1.152 0-.866-.553-1.217-1.729-1.217h-.733zm-159.978-23.311c0-10.142-6.181-16.906-13.292-16.906-7.228 0-13.173 6.648-13.173 16.906 0 10.142 5.945 16.902 13.173 16.902 7.111 0 13.292-6.76 13.292-16.902zm-300.716-13.177c0-15.62-9.91-26.342-23.785-26.342-13.872 0-23.902 10.722-23.902 26.342 0 15.624 10.146 26.353 23.902 26.353 13.875 0 23.785-10.729 23.785-26.353zm229.006 8.281c-1.05-8.049-6.062-12.709-13.64-12.709-7.343 0-12.474 4.899-13.057 12.709zm-536.285-28.565c-1.08-3.494-2.515-7.991-3.456-10.588-1.964-5.393-3.024-11.312.896-13.954 2.591-1.745 8.445-1.391 13.347.812 4.909 2.195 10.984 7.026 13.94 15.518 1.261 3.613 2.103 7.984 2.563 11.018-8.434 1.544-18.03.59-27.29-2.806zm404.237-97.305c2.332-6.062 8.277-9.559 16.67-9.559 8.162 0 15.624 3.265 21.334 9.33 5.482 5.83 8.509 13.753 8.509 22.964 0 9.559-2.444 17.021-7.81 22.967-5.71 6.181-13.288 9.559-21.33 9.559-8.864 0-15.624-3.961-17.956-9.91v31.946h-19.585v-85.806h20.168zm-402.733 46.2c5.673-1.231 11.069 1.929 13.128 9.446.491 1.793.563 3.648.293 5.414-.433 2.819-2.468 4.946-5.048 5.7-2.462.719-6.594.106-8.332-.46-2.148-.703-4.637-2.308-6.382-6.113-2.813-6.129.658-12.77 6.341-13.987zm315.975-69.747c8.625 8.509 13.173 19.933 13.173 33.109 0 13.173-4.548 24.484-13.173 33.109-8.629 8.629-20.056 13.173-33.344 13.173-13.173 0-24.716-4.544-33.345-13.173-8.628-8.625-13.173-19.936-13.173-33.109 0-13.176 4.545-24.6 13.057-33.109 8.745-8.744 20.172-13.176 33.461-13.176 13.407 0 24.596 4.432 33.344 13.176zm252.791 69.133c-2.332 6.061-8.278 9.559-16.674 9.559-8.158 0-15.736-3.262-21.45-9.327-5.475-5.83-8.39-13.872-8.39-23.083 0-9.559 2.444-16.906 7.81-22.851 5.711-6.178 13.289-9.559 21.454-9.559 7.926 0 14.219 2.914 17.833 9.327v-8.161h19.585v62.604h-20.168zm-111.229-80.56h20.404v36.027c4.312-6.999 10.493-10.612 18.184-10.612 11.427 0 18.538 7.462 18.538 20.986v42.668h-20.4v-36.723c0-6.644-2.331-9.91-7.813-9.91-5.71 0-8.509 3.849-8.509 11.659v34.974h-20.404zm141.672 26.465h19.469v9.562c5.008-7.347 10.957-10.612 19.115-10.612 11.427 0 18.539 7.462 18.539 20.986v42.668h-20.404v-36.723c0-6.644-2.328-9.91-7.81-9.91-5.478 0-8.509 3.965-8.509 11.659v34.974h-20.4zm-262.701 0h19.817v11.423c3.498-8.509 8.86-12.589 16.906-12.589.814 0 1.513 0 2.328.116v21.569c-2.328-.467-4.428-.818-6.061-.818-9.675 0-12.59 5.597-12.59 18.307v24.596h-20.4zm65.758 31.244c0 10.261 6.065 17.021 13.176 17.021 7.227 0 13.173-6.76 13.173-17.021 0-10.258-5.946-16.786-13.173-16.786-7.111 0-13.176 6.528-13.176 16.786zm167.083 0c0-10.142-6.181-16.906-13.289-16.906-7.231 0-13.176 6.648-13.176 16.906 0 10.142 5.945 16.902 13.176 16.902 7.108 0 13.289-6.76 13.289-16.902zm-262.937-13.173c0-15.624-9.91-26.345-23.781-26.345-13.875 0-23.902 10.721-23.902 26.345s10.146 26.346 23.902 26.346c13.871 0 23.781-10.722 23.781-26.346z" fill="#18687a" fill-rule="nonzero"/></svg>